<svg xmlns="http://www.w3.org/2000/svg" version="1.1" xmlns:xlink="http://www.w3.org/1999/xlink" xmlns:svgjs="http://svgjs.dev/svgjs" width="1500" height="1500" viewBox="0 0 1500 1500"><rect width="1500" height="1500" fill="#ba3b0a"></rect><g transform="matrix(0.6666666666666666,0,0,0.6666666666666666,249.39393939393938,435.99032258064517)"><svg viewBox="0 0 396 248" data-background-color="#ba3b0a" preserveAspectRatio="xMidYMid meet" height="939" width="1500" xmlns="http://www.w3.org/2000/svg" xmlns:xlink="http://www.w3.org/1999/xlink"><g id="tight-bounds" transform="matrix(1,0,0,1,0.2400000000000091,0.4000000000000057)"><svg viewBox="0 0 395.52 247.2" height="247.2" width="395.52"><g><svg></svg></g><g><svg viewBox="0 0 395.52 247.2" height="247.2" width="395.52"><g transform="matrix(1,0,0,1,75.54432000000001,94.56108054057444)"><svg viewBox="0 0 244.43135999999996 58.077838918851114" height="58.077838918851114" width="244.43135999999996"><g><svg viewBox="0 0 244.43135999999996 58.077838918851114" height="58.077838918851114" width="244.43135999999996"><g><svg viewBox="0 0 358.6128968532272 85.20781481420511" height="58.077838918851114" width="244.43135999999996"><g transform="matrix(1,0,0,1,114.18153685322724,11.776188588649191)"><svg viewBox="0 0 244.43135999999998 61.655437636906726" height="61.655437636906726" width="244.43135999999998"><g id="textblocktransform"><svg viewBox="0 0 244.43135999999998 61.655437636906726" height="61.655437636906726" width="244.43135999999998" id="textblock"><g><svg viewBox="0 0 244.43135999999998 61.655437636906726" height="61.655437636906726" width="244.43135999999998"><g transform="matrix(1,0,0,1,0,0)"><svg width="244.43135999999998" viewBox="1.75 -37.5 150.64 38" height="61.655437636906726" data-palette-color="#ffffff"><path d="M11.15 0.5L7.4 0.5Q4.7 0.5 3.6-0.88 2.5-2.25 2.5-4.05L2.5-4.05Q2.5-4.2 2.55-4.6 2.6-5 2.81-6.31 3.03-7.63 3.5-10.41 3.98-13.2 4.84-18.07 5.7-22.95 7.05-30.55L7.05-30.55 11.65-31 7.2-5.05Q7.2-3.7 8.01-3.4 8.83-3.1 10.95-3.1L10.95-3.1 12.15-3.1 11.15 0.5ZM15.4-21L1.75-21 2.75-24.5 16.05-24.5 15.4-21ZM25.45 0.5L25.45 0.5Q22.32 0.5 20.27-0.86 18.22-2.23 17.21-4.58 16.2-6.93 16.2-9.85L16.2-9.85Q16.2-12.88 17.19-15.6 18.17-18.32 19.97-20.44 21.77-22.55 24.23-23.78 26.7-25 29.65-25L29.65-25Q32.77-25 34.82-23.63 36.87-22.25 37.89-19.89 38.9-17.53 38.9-14.6L38.9-14.6Q38.9-11.6 37.91-8.89 36.92-6.18 35.12-4.05 33.32-1.93 30.86-0.71 28.4 0.5 25.45 0.5ZM26.1-3.5L26.1-3.5Q28.6-3.5 30.42-4.95 32.25-6.4 33.25-8.84 34.25-11.28 34.25-14.25L34.25-14.25Q34.25-17.63 32.92-19.31 31.6-21 29-21L29-21Q26.5-21 24.67-19.55 22.85-18.1 21.85-15.66 20.85-13.23 20.85-10.25L20.85-10.25Q20.85-6.93 22.16-5.21 23.47-3.5 26.1-3.5ZM51.15 0.5L51.15 0.5Q48.02 0.5 45.97-0.86 43.92-2.23 42.91-4.58 41.9-6.93 41.9-9.85L41.9-9.85Q41.9-12.88 42.88-15.6 43.87-18.32 45.67-20.44 47.47-22.55 49.93-23.78 52.4-25 55.35-25L55.35-25Q58.47-25 60.52-23.63 62.57-22.25 63.58-19.89 64.59-17.53 64.59-14.6L64.59-14.6Q64.59-11.6 63.61-8.89 62.62-6.18 60.82-4.05 59.02-1.93 56.56-0.71 54.1 0.5 51.15 0.5ZM51.8-3.5L51.8-3.5Q54.3-3.5 56.12-4.95 57.95-6.4 58.95-8.84 59.95-11.28 59.95-14.25L59.95-14.25Q59.95-17.63 58.62-19.31 57.3-21 54.7-21L54.7-21Q52.2-21 50.37-19.55 48.55-18.1 47.55-15.66 46.55-13.23 46.55-10.25L46.55-10.25Q46.55-6.93 47.86-5.21 49.17-3.5 51.8-3.5ZM74.09 0.5L72.54 0.5Q69.89 0.5 68.82-0.78 67.74-2.05 67.74-3.8L67.74-3.8Q67.74-4.35 67.87-5.24 67.99-6.13 68.24-7.5L68.24-7.5 73.49-37.5 78.04-37.5 72.74-7.05Q72.59-6.2 72.54-5.78 72.49-5.35 72.49-5.1L72.49-5.1Q72.49-3.88 73.13-3.49 73.77-3.1 75.29-3.1L75.29-3.1 74.09 0.5ZM90.54 0.5L90.54 0.5Q87.77 0.5 85.89-0.79 84.02-2.08 83.12-4.4L83.12-4.4 84.34-5.15 82.84 0 78.74 0 85.34-37.5 89.89-37.5 86.77-19.75 85.99-20.25Q87.17-22.2 88.58-23.23 89.99-24.25 91.4-24.63 92.82-25 93.99-25L93.99-25Q96.79-25 98.64-23.59 100.49-22.18 101.42-19.83 102.34-17.48 102.34-14.7L102.34-14.7Q102.34-11.03 101.38-8.19 100.42-5.35 98.75-3.43 97.09-1.5 94.97-0.5 92.84 0.5 90.54 0.5ZM90.29-3.5L90.29-3.5Q92.42-3.5 94.08-4.91 95.74-6.33 96.69-8.76 97.64-11.2 97.64-14.25L97.64-14.25Q97.64-17.15 96.45-19.07 95.27-21 92.74-21L92.74-21Q90.77-21 88.98-19.7 87.19-18.4 86.07-15.98 84.94-13.55 84.94-10.2L84.94-10.2Q84.94-6.58 86.48-5.04 88.02-3.5 90.29-3.5ZM114.54 0.5L114.54 0.5Q111.41 0.5 109.36-0.86 107.31-2.23 106.3-4.58 105.29-6.93 105.29-9.85L105.29-9.85Q105.29-12.88 106.28-15.6 107.26-18.32 109.06-20.44 110.86-22.55 113.33-23.78 115.79-25 118.74-25L118.74-25Q121.86-25 123.91-23.63 125.96-22.25 126.98-19.89 127.99-17.53 127.99-14.6L127.99-14.6Q127.99-11.6 127-8.89 126.01-6.18 124.21-4.05 122.41-1.93 119.95-0.71 117.49 0.5 114.54 0.5ZM115.19-3.5L115.19-3.5Q117.69-3.5 119.51-4.95 121.34-6.4 122.34-8.84 123.34-11.28 123.34-14.25L123.34-14.25Q123.34-17.63 122.01-19.31 120.69-21 118.09-21L118.09-21Q115.59-21 113.76-19.55 111.94-18.1 110.94-15.66 109.94-13.23 109.94-10.25L109.94-10.25Q109.94-6.93 111.25-5.21 112.56-3.5 115.19-3.5ZM148.24 0L143.04 0 139.09-9.93 137.49-11.93 132.09-24.5 137.29-24.5 140.71-14.63 142.06-12.25 148.24 0ZM132.84 0L127.64 0 137.84-12.95 139.71-10.25 132.84 0ZM152.39-24.5L141.71-11.25 140.11-14.33 147.04-24.5 152.39-24.5Z" opacity="1" transform="matrix(1,0,0,1,0,0)" fill="#ffffff" class="wordmark-text-0" data-fill-palette-color="primary" id="text-0"></path></svg></g></svg></g></svg></g></svg></g><g><svg viewBox="0 0 99.62616775765684 85.20781481420511" height="85.20781481420511" width="99.62616775765684"><g><svg xmlns="http://www.w3.org/2000/svg" xmlns:xlink="http://www.w3.org/1999/xlink" version="1.1" x="0" y="0" viewBox="45.3 53.2 107.10000000000001 91.60000000000001" enable-background="new 0 0 200 200" xml:space="preserve" height="85.20781481420511" width="99.62616775765684" class="icon-icon-0" data-fill-palette-color="accent" id="icon-0"><g fill="#ffffff" data-fill-palette-color="accent"><g fill="#ffffff" data-fill-palette-color="accent"><path fill="#ffffff" d="M129.9 105.4V115.3H123.1V105.4H74.5V115.3H67.7V105.4H45.3V135.4C45.3 140.6 49.5 144.8 54.7 144.8H143C148.2 144.8 152.4 140.6 152.4 135.4V105.4zM98.8 135.3C94.8 135.3 91.6 132.1 91.6 128.1S94.8 120.9 98.8 120.9 106 124.1 106 128.1 102.8 135.3 98.8 135.3" data-fill-palette-color="accent"></path><path fill="#ffffff" d="M67.8 94.9H74.6V100.7H123.2V94.9H130V100.7H152.4V89.3C152.4 84.1 148.2 79.9 143 79.9H128.6V60.2C128.6 56.3 125.5 53.2 121.6 53.2H76.1C72.2 53.2 69.1 56.3 69.1 60.2V79.9H54.7C49.5 79.9 45.3 84.1 45.3 89.3V100.7H67.7V94.9zM73.1 60.2C73.1 58.5 74.4 57.2 76.1 57.2H121.5C123.2 57.2 124.5 58.5 124.5 60.2V79.9H73.1z" data-fill-palette-color="accent"></path></g></g></svg></g></svg></g></svg></g></svg></g></svg></g><path d="M198.827 88.561L198.827 26.596 4.82 26.596 4.82 220.604 198.827 220.604 198.827 158.639 195.038 158.639 195.038 216.814 8.61 216.814 8.61 30.386 195.038 30.386 195.038 88.561Z" fill="#ffffff" stroke="transparent" data-fill-palette-color="tertiary"></path></svg></g><defs></defs></svg><rect width="395.52" height="247.2" fill="none" stroke="none" visibility="hidden"></rect></g></svg></g></svg>